<?xml version="1.0" encoding="UTF-8" standalone="no"?>
<svg xmlns="http://www.w3.org/2000/svg" version="1.1" xmlns:xlink="http://www.w3.org/1999/xlink" xmlns:svgjs="http://svgjs.dev/svgjs" width="128" height="128" viewBox="0 0 128 128"><g transform="matrix(0.8046875,0,0,0.8046875,12.251863636363638,12.251863636363638)"><svg viewBox="0 0 143 143" data-background-color="#ffffff" preserveAspectRatio="xMidYMid meet" height="128" width="128" xmlns="http://www.w3.org/2000/svg" xmlns:xlink="http://www.w3.org/1999/xlink"><g id="tight-bounds" transform="matrix(1,0,0,1,0.3444999999999965,0.3444999999999965)"><svg viewBox="0 0 142.31066447748242 142.31066447748242" height="142.31066447748242" width="142.31066447748242"><g><svg></svg></g><g><svg viewBox="0 0 142.31066447748242 142.31066447748242" height="142.31066447748242" width="142.31066447748242"><g><path d="M0 71.155c0-39.298 31.857-71.155 71.155-71.155 39.298 0 71.155 31.857 71.156 71.155 0 39.298-31.857 71.155-71.156 71.156-39.298 0-71.155-31.857-71.155-71.156zM71.155 134.886c35.197 0 63.731-28.533 63.731-63.731 0-35.197-28.533-63.731-63.731-63.73-35.197 0-63.731 28.533-63.73 63.73 0 35.197 28.533 63.731 63.73 63.731z" data-fill-palette-color="tertiary" fill="#3FA2F6" stroke="transparent"></path><ellipse rx="68.30911894919156" ry="68.30911894919156" cx="71.15533223874121" cy="71.15533223874121" fill="#3FA2F6" stroke="transparent" stroke-width="0" fill-opacity="1" data-fill-palette-color="tertiary"></ellipse></g><g transform="matrix(1,0,0,1,38.396626557314065,29.989108276746492)"><svg viewBox="0 0 65.51741136285429 82.33244792398943" height="82.33244792398943" width="65.51741136285429"><g><svg viewBox="0 0 65.51741136285429 82.33244792398943" height="82.33244792398943" width="65.51741136285429"><g><svg viewBox="0 0 65.51741136285429 82.33244792398943" height="82.33244792398943" width="65.51741136285429"><g id="textblocktransform"><svg viewBox="0 0 65.51741136285429 82.33244792398943" height="82.33244792398943" width="65.51741136285429" id="textblock"><g><svg viewBox="0 0 65.51741136285429 82.33244792398943" height="82.33244792398943" width="65.51741136285429"><g transform="matrix(1,0,0,1,0,0)"><svg width="65.51741136285429" viewBox="-0.39 -29.25 33.96 42.68" height="82.33244792398943" data-palette-color="#ffffff"><path d="M5.81 3.37L5.81 3.39Q8.08 2.61 8.08-1.03L8.08-1.03Q8.08-2.39 7.15-5.35L7.15-5.35 6.76-6.57Q3.91-15.72-0.39-29.17L-0.39-29.17 7.06-29.17 14.4-29.2 15.5-22.88Q15.63-21.83 15.89-19.9 16.16-17.97 16.28-16.99L16.28-16.99 18.65-29.2 33.08-29.2 33.08-29.25 33.57-29.2 33.45-28.71 33.4-28.71 26.95-10.84Q25.95-8.33 25.46-6.63 24.98-4.93 24.37-3.44 23.75-1.95 22.23 2.4 20.7 6.76 19.31 9.25L19.31 9.25Q17.11 12.99 12.3 13.31L12.3 13.31 10.01 13.33 8.03 13.43Q7.47 13.43 7.08 13.35L7.08 13.35Q6.91 13.4 6.57 13.4L6.57 13.4 5.08 13.33 4.13 13.4Q4 13.4 3.52 13.35L3.52 13.35Q2.49 13.35 1.46 13.35L1.46 13.35 1 12.11Q0.95 11.96 0.95 11.73 0.95 11.5 0.98 11.4L0.98 11.4 0.98 11.23 1 10.99 1 8.2Q1 5.32 0.98 3.93L0.98 3.93Q1.32 3.88 1.72 3.88 2.12 3.88 2.37 3.96L2.37 3.96Q2.71 3.88 3.27 3.88L3.27 3.88 3.47 3.88Q3.66 3.76 4.35 3.66 5.03 3.56 5.4 3.47 5.76 3.37 5.81 3.37L5.81 3.37Z" opacity="1" transform="matrix(1,0,0,1,0,0)" fill="#ffffff" class="wordmark-text-0" data-fill-palette-color="quaternary" id="text-0"></path></svg></g></svg></g></svg></g></svg></g></svg></g></svg></g></svg></g><defs></defs></svg><rect width="142.31066447748242" height="142.31066447748242" fill="none" stroke="none" visibility="hidden"></rect></g></svg></g></svg>